<svg width="358" height="70" viewBox="0 0 358 70" fill="none" xmlns="http://www.w3.org/2000/svg">
<rect width="358" height="70" rx="4" fill="url(#paint0_linear_123_1116)"/>
<path d="M36.676 25.544V26.608H25.448V25.544H30.348V22.632H31.636V25.544H36.676ZM25.84 21.764C28.192 21.386 30.292 19.566 30.32 17.62V16.696H31.664V17.62C31.678 19.566 33.806 21.386 36.172 21.764L35.612 22.856C33.624 22.45 31.804 21.218 30.992 19.538C30.18 21.218 28.374 22.464 26.4 22.856L25.84 21.764ZM41.0196 16.332C42.8676 16.332 44.2256 17.466 44.2396 19.076C44.2256 20.686 42.8676 21.806 41.0196 21.792C39.1576 21.806 37.7996 20.686 37.7996 19.076C37.7996 17.466 39.1576 16.332 41.0196 16.332ZM39.0596 19.076C39.0596 20.084 39.8996 20.742 41.0196 20.756C42.1396 20.742 42.9796 20.084 42.9796 19.076C42.9796 18.082 42.1396 17.41 41.0196 17.424C39.8996 17.41 39.0596 18.082 39.0596 19.076ZM39.6476 23.752V22.716H47.7116V25.796H40.9636V26.972H48.1036V28.008H39.7036V24.816H46.4236V23.752H39.6476ZM46.4236 22.156V15.912H47.7116V22.156H46.4236ZM59.8672 15.912V28.148H58.5792V21.848H55.8072V20.756H58.5792V15.912H59.8672ZM49.6192 24.872C52.8672 23.29 54.3232 21.064 54.5472 18.264H50.1792V17.228H55.8632C55.8492 20.77 54.4632 23.836 50.3192 25.88L49.6192 24.872ZM71.9108 15.912V28.176H70.6228V15.912H71.9108ZM62.4188 18.068V17.004H68.1588V21.484H63.7908V24.172C65.7788 24.158 67.5148 24.074 69.5588 23.724L69.6708 24.816C67.5008 25.166 65.6528 25.25 63.4828 25.236H62.4468V20.448H66.8428V18.068H62.4188ZM85.0464 21.54V22.52H73.8464V21.54H85.0464ZM75.1624 24.312V23.388H83.6744V26.076H76.4784V27.084H84.0384V28.008H75.1904V25.208H82.3864V24.312H75.1624ZM75.2464 17.144V16.22H83.6464V18.88H76.5624V19.804H83.8424V20.728H75.2744V18.012H82.3304V17.144H75.2464ZM98.912 15.912V20.868H100.872V21.96H98.912V28.148H97.624V15.912H98.912ZM89.308 18.88V17.844H92.332V16.08H93.62V17.844H96.56V18.88H89.308ZM89.924 22.632C89.924 20.966 91.212 19.79 92.976 19.804C94.726 19.79 96.014 20.966 96.028 22.632C96.014 24.326 94.726 25.488 92.976 25.488C91.212 25.488 89.924 24.326 89.924 22.632ZM91.184 22.632C91.17 23.696 91.926 24.41 92.976 24.396C94.012 24.41 94.782 23.696 94.796 22.632C94.782 21.596 94.012 20.868 92.976 20.868C91.926 20.868 91.17 21.596 91.184 22.632ZM107.708 16.948V17.984H110.396V15.912H111.684V24.844H110.396V21.68H107.708V22.744H102.024V16.948H107.708ZM103.312 21.736H106.448V18.012H103.312V21.736ZM103.676 27.896V24.032H104.992V26.86H111.964V27.896H103.676ZM107.708 20.616H110.396V19.076H107.708V20.616Z" fill="white"/>
<path d="M34.52 36.24V44.48H26.04V36.24H34.52ZM27.08 50.76C30.82 50.28 32.68 48.34 32.68 46.36V45.92H35.16V46.36C35.16 48.34 37.02 50.28 40.84 50.76L39.84 52.72C37.04 52.3 35.02 51.08 33.94 49.42C32.86 51.08 30.84 52.3 28.04 52.72L27.08 50.76ZM28.52 42.48H32.04V38.24H28.52V42.48ZM37.12 46.76V35H39.64V39.48H42.04V41.52H39.64V46.76H37.12ZM49.2852 46.44C49.2852 47.86 49.8852 49.34 51.3252 50.3C52.7852 49.28 53.4452 47.76 53.4452 46.44V45.8H55.8852V46.44C55.8852 48.28 56.8652 50 59.2452 50.72L58.0052 52.52C56.3252 51.96 55.2052 50.88 54.6052 49.52C54.0052 50.88 52.9852 52.06 51.4052 52.68C49.7252 52.08 48.6852 50.94 48.1052 49.56C47.4652 50.9 46.3652 51.96 44.7252 52.52L43.5252 50.72C45.8452 49.92 46.8452 48.16 46.8452 46.44V45.8H49.2852V46.44ZM43.0852 40.2C43.0852 37.7 45.1652 35.94 47.9652 35.92C50.7252 35.94 52.8052 37.7 52.8052 40.2C52.8052 42.7 50.7252 44.46 47.9652 44.44C45.1652 44.46 43.0852 42.7 43.0852 40.2ZM45.5252 40.2C45.5052 41.56 46.5252 42.4 47.9652 42.4C49.3452 42.4 50.3452 41.56 50.3252 40.2C50.3452 38.84 49.3452 38.02 47.9652 38.04C46.5252 38.02 45.5052 38.84 45.5252 40.2ZM55.2052 45.08V35.04H57.6852V45.08H55.2052ZM74.5303 39.88V41.84H62.1303V35.64H64.6103V39.88H74.5303ZM60.0903 45.68V43.72H76.3303V45.68H60.0903ZM61.9703 52.4V47.12H64.4503V50.4H74.6503V52.4H61.9703ZM96.1048 35V38.76H98.5048V40.84H96.1048V44.76H93.5848V35H96.1048ZM82.5048 44.12V35.92H84.9848V38.08H88.6248V35.92H91.1448V44.12H82.5048ZM84.4248 52.6V45.52H86.9048V47.12H93.5848V45.52H96.1048V52.6H84.4248ZM84.9848 42.16H88.6248V40H84.9848V42.16ZM86.9048 50.6H93.5848V49.04H86.9048V50.6ZM107.39 35.28C111.47 35.28 113.83 36.34 113.83 38.32C113.83 40.28 111.47 41.36 107.39 41.36C103.27 41.36 100.89 40.28 100.91 38.32C100.89 36.34 103.27 35.28 107.39 35.28ZM99.27 44.16V42.2H115.51V44.16H99.27ZM101.15 52.68V48H111.07V47.04H101.15V45.2H113.51V49.72H103.59V50.8H113.99V52.68H101.15ZM103.51 38.32C103.51 39.18 104.77 39.52 107.39 39.52C110.01 39.52 111.27 39.18 111.27 38.32C111.27 37.52 110.01 37.1 107.39 37.08C104.77 37.1 103.51 37.52 103.51 38.32ZM130.125 36.6V38.6H124.525V46.52C127.105 46.5 128.985 46.36 131.085 45.96L131.325 48C128.885 48.46 126.745 48.56 123.485 48.56H122.005V36.6H130.125ZM129.245 43.2V41.16H133.725V35H136.205V52.84H133.725V43.2H129.245ZM157.579 35V41.68H159.579V43.76H157.579V52.8H155.019V47.26L153.539 48.92C152.399 48.04 151.699 46.72 151.279 45.18C150.839 46.78 150.099 48.18 148.859 49.08C147.639 48.18 146.899 46.8 146.439 45.24C146.039 46.7 145.359 47.98 144.299 48.84L142.619 47.16C144.899 45.34 145.239 42.3 145.259 39.52V36.44H147.579V39.52C147.579 41.54 147.759 43.88 148.879 45.72C149.939 43.9 150.099 41.56 150.139 39.52V36.44H152.459V39.52C152.459 42.26 152.779 45.3 155.019 47.1V35H157.579ZM175.744 35V52.8H173.424V35H175.744ZM160.144 47.36C163.744 45.22 165.304 42.62 165.644 39.12H161.104V37.12H168.104C168.104 38.82 167.924 40.42 167.504 41.88H169.624V35.44H171.984V52H169.624V43.84H166.744C165.724 45.88 164.084 47.64 161.544 49.08L160.144 47.36Z" fill="white"/>
<rect x="239" y="20" width="96" height="29" rx="4" fill="#FF854C"/>
<path d="M260.76 38.376V39.776H249.364V38.376H254.124V35.548H255.86V38.376H260.76ZM249.644 34.512C252.458 34.064 254.04 32.174 254.068 30.424V29.528H255.916V30.424C255.916 32.188 257.512 34.064 260.368 34.512L259.612 35.968C257.428 35.562 255.804 34.386 254.992 32.846C254.166 34.386 252.556 35.576 250.372 35.968L249.644 34.512ZM265.02 29.192C266.896 29.178 268.324 30.368 268.324 32.02C268.324 33.672 266.896 34.848 265.02 34.848C263.088 34.848 261.66 33.672 261.66 32.02C261.66 30.368 263.088 29.178 265.02 29.192ZM263.368 32.02C263.34 32.916 264.054 33.448 265.02 33.448C265.944 33.448 266.644 32.916 266.644 32.02C266.644 31.138 265.944 30.606 265.02 30.62C264.054 30.606 263.34 31.138 263.368 32.02ZM263.536 36.92V35.576H271.88V38.936H265.272V39.748H272.216V41.12H263.564V37.676H270.144V36.92H263.536ZM270.144 35.044V28.8H271.88V35.044H270.144ZM284.063 28.8V41.26H282.327V35.016H279.835V33.588H282.327V28.8H284.063ZM273.451 37.732C276.601 36.178 277.903 34.204 278.155 31.488H274.039V30.116H279.919C279.905 33.868 278.687 36.948 274.347 39.104L273.451 37.732ZM296.107 28.8V41.288H294.371V28.8H296.107ZM286.335 38.376V33.28H290.451V31.264H286.335V29.864H292.243V34.652H288.127V36.948C290.031 36.934 291.641 36.836 293.475 36.528L293.615 37.928C291.585 38.292 289.737 38.376 287.455 38.376H286.335ZM310.817 28.8V33.7H312.637V35.128H310.817V41.26H309.081V28.8H310.817ZM300.933 32.076V30.676H303.733V28.996H305.497V30.676H308.241V32.076H300.933ZM301.437 35.744C301.423 33.994 302.781 32.762 304.629 32.776C306.435 32.762 307.793 33.994 307.793 35.744C307.793 37.466 306.435 38.698 304.629 38.684C302.781 38.698 301.423 37.466 301.437 35.744ZM303.117 35.744C303.103 36.696 303.733 37.27 304.629 37.256C305.483 37.27 306.113 36.696 306.113 35.744C306.113 34.778 305.483 34.19 304.629 34.176C303.733 34.19 303.103 34.778 303.117 35.744ZM323.561 28.8V41.26H321.797V28.8H323.561ZM313.145 37.732C316.351 36.206 317.765 34.246 318.045 31.488H313.789V30.116H319.809C319.823 33.882 318.493 37.032 314.041 39.132L313.145 37.732Z" fill="white"/>
<defs>
<linearGradient id="paint0_linear_123_1116" x1="0" y1="35" x2="358" y2="35" gradientUnits="userSpaceOnUse">
<stop stop-color="#FF854C"/>
<stop offset="1" stop-color="#FFEFD8"/>
</linearGradient>
</defs>
</svg>
