<svg width="32" height="32" viewBox="0 0 32 32" fill="none" xmlns="http://www.w3.org/2000/svg">
<g id="Alerts &#38; feedback/bell-01">
<path id="Icon" d="M12.4719 28.0001C13.4121 28.8299 14.6471 29.3334 15.9997 29.3334C17.3523 29.3334 18.5873 28.8299 19.5275 28.0001M23.9997 10.6667C23.9997 8.54502 23.1568 6.51018 21.6566 5.00989C20.1563 3.5096 18.1214 2.66675 15.9997 2.66675C13.878 2.66675 11.8431 3.5096 10.3428 5.00989C8.84255 6.51018 7.9997 8.54502 7.9997 10.6667C7.9997 14.787 6.96033 17.608 5.79925 19.474C4.81987 21.0479 4.33018 21.8349 4.34813 22.0544C4.36801 22.2975 4.41951 22.3902 4.6154 22.5355C4.79231 22.6667 5.58982 22.6667 7.18484 22.6667H24.8146C26.4096 22.6667 27.2071 22.6667 27.384 22.5355C27.5799 22.3902 27.6314 22.2975 27.6513 22.0544C27.6692 21.8349 27.1795 21.0479 26.2001 19.474C25.0391 17.608 23.9997 14.787 23.9997 10.6667Z" stroke="#0C0E27" stroke-width="2.66667" stroke-linecap="round" stroke-linejoin="round"/>
</g>
</svg>
