<svg width="67" height="68" viewBox="0 0 67 68" fill="none" xmlns="http://www.w3.org/2000/svg">
<g id="Capa_1" clip-path="url(#clip0_307_4690)">
<path id="Vector" d="M24.6973 1.15846C23.7204 1.41901 23.1415 2.42161 23.404 3.39849C23.5343 3.8826 30.2493 28.0516 33.4394 38.6462C32.8572 39.2311 32.6878 40.1433 32.8104 40.9984C32.72 41.0929 32.7081 41.2349 32.757 41.3521L30.0765 42.067C28.7053 42.4327 27.8924 43.8406 28.261 45.2116L28.5786 46.3912C28.5126 46.4619 28.489 46.5569 28.5015 46.65L27.9716 46.9003C27.416 47.0485 27.2354 47.3614 27.3848 47.9166C27.5343 48.4718 27.977 48.7274 28.5326 48.5793L29.0885 48.54L29.7353 60.0289C30.0009 60.0173 30.2668 60.0028 30.5321 59.9866C30.6619 60.0942 30.8827 60.0826 31.0008 59.9532C31.1925 59.9392 31.3835 59.9249 31.575 59.9085C31.6868 60.1767 32.139 60.1574 32.1938 59.8501C32.5249 59.8162 32.8558 59.7801 33.1858 59.7388C33.2581 59.7297 33.3302 59.7196 33.4029 59.7099C33.4842 59.7986 33.6196 59.8411 33.7336 59.8111C33.8327 59.7847 33.9 59.7195 33.937 59.6383C34.2651 59.5913 34.5919 59.5398 34.9185 59.486C34.9971 59.5861 35.1445 59.6355 35.2652 59.6033C35.3858 59.5711 35.4541 59.4897 35.4849 59.3889C35.9324 59.3091 36.3782 59.223 36.8227 59.13C36.9147 59.5076 37.4814 59.3652 37.451 58.9942C37.9935 58.8727 38.5335 58.7422 39.0714 58.6021C39.2228 58.8795 39.6862 58.7564 39.6785 58.4411C39.8524 58.3933 40.0263 58.3455 40.1996 58.2959C40.2814 58.3811 40.4153 58.4211 40.526 58.3916C40.6584 58.3563 40.735 58.2539 40.7554 58.1342C40.9364 58.0806 41.118 58.0259 41.2985 57.9705C41.4662 58.2132 41.8994 58.0894 41.8896 57.7858C42.4174 57.6171 42.9427 57.4408 43.4655 57.257C43.5429 57.3314 43.6485 57.3688 43.7656 57.3376C43.8835 57.3061 43.9893 57.1901 44.0074 57.0638C44.1547 57.0105 44.3017 56.9578 44.4482 56.9033C44.807 56.77 45.1705 56.6379 45.5355 56.5043C45.6347 56.5555 45.7634 56.5569 45.8567 56.5036C45.9294 56.462 45.9744 56.4013 45.997 56.333C46.641 56.0923 47.2837 55.8394 47.9095 55.5563C48.0832 55.6566 48.3268 55.5327 48.3802 55.3348C48.8498 55.1059 49.3058 54.8569 49.7412 54.5778C49.7823 54.5514 49.823 54.5232 49.8637 54.495L44.5771 44.41L45.1953 44.1361C45.7508 43.9879 46.0059 43.5462 45.8564 42.991C45.707 42.4358 45.3933 42.2547 44.8378 42.4029L44.4812 42.498C44.4326 42.3803 44.324 42.2887 44.176 42.2997L43.7392 41.0839C43.3702 39.7134 41.9591 38.8987 40.5873 39.2641L37.9573 39.9656C37.9432 39.8633 37.8872 39.7663 37.7987 39.7137C37.4677 38.853 36.8029 38.1151 35.9427 37.9202C33.3753 27.1297 27.0713 2.93876 26.9416 2.45498C26.6788 1.47867 25.6739 0.898475 24.6969 1.15903L24.6973 1.15846Z" fill="#FFD0AD"/>
<path id="Vector_2" d="M40.6618 39.1347L38.0318 39.8361C38.0178 39.7338 37.9618 39.6369 37.8733 39.5843C37.5422 38.7236 36.8031 38.1144 35.9429 37.9195C35.5298 37.8262 35.089 37.8271 34.6514 37.9438C34.1742 38.071 33.7637 38.3204 33.439 38.6466C32.8567 39.2316 32.5582 40.0692 32.6808 40.9243C32.5904 41.0188 32.5785 41.1609 32.6274 41.278L29.9469 41.9929C28.5757 42.3587 27.7628 43.7665 28.1314 45.1375L28.449 46.3172C28.383 46.3878 28.3594 46.4829 28.3719 46.576L27.9163 46.6975C27.3608 46.8456 27.0314 47.4162 27.1808 47.9714C27.3303 48.5266 27.9022 48.8567 28.4577 48.7086L29.088 48.5405L31.0487 48.018L31.7897 47.8204L32.7045 47.5764L33.332 47.409L34.1154 47.2001L34.7429 47.0327L35.8639 46.7337L36.4915 46.5664L39.3097 45.8147L39.9373 45.6473L40.8511 45.4036L41.4787 45.2362L42.5547 44.9493L43.1939 44.7788L44.5769 44.4099L45.3242 44.2106C45.8798 44.0624 46.2092 43.4919 46.0597 42.9367C45.9103 42.3815 45.3384 42.0513 44.7829 42.1995L44.4263 42.2946C44.3777 42.1768 44.2691 42.0853 44.1211 42.0963L43.8139 40.9553C43.445 39.5849 42.0339 38.7702 40.6621 39.1356L40.6618 39.1347Z" fill="#6FC3EF"/>
<g id="Group">
<path id="Vector_3" d="M32.1352 49.6629C32.02 49.0484 31.9054 48.4343 31.7901 47.8198L31.0491 48.0175C31.2539 50.9902 31.4027 53.9663 31.4864 56.9443C31.5129 57.8906 31.5337 58.8374 31.5478 59.7841C31.5488 59.831 31.5583 59.8714 31.5735 59.9084C31.6853 60.1766 32.1375 60.1572 32.1923 59.8499C32.1962 59.8286 32.1987 59.8058 32.1984 59.7812C32.1597 57.2517 32.077 54.7219 31.9507 52.195C32.2396 53.7358 32.5281 55.2772 32.8163 56.8177C32.9891 57.7389 33.1612 58.6598 33.3339 59.5811C33.3431 59.6312 33.368 59.6738 33.4014 59.7097C33.4827 59.7985 33.6181 59.8409 33.7321 59.811C33.8312 59.7846 33.8985 59.7194 33.9355 59.6381C33.9661 59.5707 33.9763 59.4922 33.9615 59.4137C33.3524 56.1635 32.7443 52.9131 32.1352 49.6629Z" fill="#F28A3D"/>
<path id="Vector_4" d="M33.6704 49.2574C33.5577 48.6413 33.4449 48.0252 33.3321 47.4091L32.7046 47.5765C33.2532 50.5737 33.8023 53.5704 34.3509 56.5676C34.5222 57.5032 34.6938 58.4383 34.8651 59.3739C34.8726 59.4163 34.8914 59.4537 34.9166 59.4865C34.9952 59.5866 35.1426 59.636 35.2633 59.6038C35.3785 59.5731 35.4523 59.4902 35.483 59.3894C35.5003 59.3318 35.5037 59.2692 35.4927 59.2065C34.8855 55.8898 34.278 52.5736 33.6708 49.2568L33.6704 49.2574Z" fill="#F28A3D"/>
<path id="Vector_5" d="M31.0795 59.7457C31.1265 57.4571 31.0672 55.1665 30.9026 52.8827C30.873 52.4682 30.2229 52.4675 30.2529 52.8853C30.4174 55.1691 30.4762 57.4594 30.4292 59.7479C30.4268 59.8552 30.4688 59.9341 30.531 59.986C30.6608 60.0936 30.8815 60.082 30.9997 59.9526C31.0461 59.9012 31.0779 59.8329 31.0793 59.7448L31.0795 59.7457Z" fill="#F28A3D"/>
<path id="Vector_6" d="M35.1556 48.9133C35.0141 48.2875 34.8775 47.6599 34.7433 47.0322L34.1157 47.1996C34.7673 50.2494 35.5222 53.276 36.2101 56.3171C36.4209 57.2489 36.6251 58.1815 36.8171 59.117C36.8183 59.1214 36.8198 59.1254 36.8211 59.1299C36.9131 59.5075 37.4798 59.365 37.4494 58.9941C37.4479 58.9796 37.4479 58.9651 37.4447 58.9496C36.7527 55.5884 35.9125 52.2595 35.1559 48.9127L35.1556 48.9133Z" fill="#F28A3D"/>
<path id="Vector_7" d="M37.0126 48.5032C36.8389 47.858 36.665 47.2119 36.4913 46.5667L35.8637 46.7341C36.672 49.7368 37.4801 52.7387 38.2884 55.7414C38.5387 56.6694 38.7881 57.5977 39.0378 58.5254C39.0456 58.5542 39.0568 58.5797 39.0693 58.6029C39.2207 58.8803 39.6841 58.7572 39.6764 58.4419C39.6759 58.415 39.6728 58.3874 39.6648 58.3577C38.7805 55.0725 37.8958 51.7878 37.012 48.5028L37.0126 48.5032Z" fill="#F28A3D"/>
<path id="Vector_8" d="M40.6371 53.6389C40.1519 52.1017 39.6592 50.5671 39.1843 49.0268C38.9683 48.3268 38.7551 47.6261 38.5575 46.9208C38.5102 46.7521 38.3301 46.6458 38.1593 46.6909C37.9747 46.7401 37.9024 46.9142 37.93 47.0882C38.1532 48.4984 38.4436 49.898 38.7315 51.2953C39.0538 52.86 39.3885 54.4228 39.7067 55.9881C39.8536 56.7113 39.9978 57.4352 40.1255 58.1625C40.1348 58.215 40.1617 58.2594 40.1974 58.2967C40.2792 58.3819 40.413 58.422 40.5237 58.3924C40.6561 58.3571 40.7327 58.2547 40.7531 58.135C40.7608 58.09 40.7615 58.0426 40.7531 57.9951C40.5077 56.6033 40.2123 55.2191 39.9234 53.8355C39.8614 53.5391 39.7989 53.2423 39.7373 52.9453C40.0348 53.8839 40.3315 54.8227 40.6218 55.7633C40.8377 56.4632 41.0509 57.1639 41.2485 57.8693C41.2598 57.9092 41.2767 57.9418 41.2972 57.9711C41.4648 58.2138 41.8981 58.09 41.8882 57.7864C41.8878 57.7595 41.8841 57.7316 41.8758 57.7025C41.4937 56.3389 41.0637 54.9886 40.6371 53.6389Z" fill="#F28A3D"/>
<path id="Vector_9" d="M40.4992 47.2863C40.3099 46.7408 40.1239 46.1934 39.9367 45.6468L39.3092 45.8142C40.2946 48.6935 41.3117 51.5629 42.3641 54.4185C42.695 55.3164 43.0294 56.2124 43.3664 57.1076C43.3878 57.1656 43.4223 57.2167 43.4645 57.257C43.5419 57.3313 43.6475 57.3688 43.7646 57.3375C43.8825 57.3061 43.9883 57.1901 44.0064 57.0638C44.0124 57.0231 44.0093 56.981 43.9939 56.9403C42.7872 53.7371 41.6221 50.5186 40.4995 47.2857L40.4992 47.2863Z" fill="#F28A3D"/>
<path id="Vector_10" d="M45.977 56.0615C44.6069 53.0818 43.3286 50.0608 42.1476 47.0017C41.9205 46.4146 41.6989 45.8261 41.4788 45.2362L40.8513 45.4036C41.9089 48.241 43.0457 51.0481 44.2622 53.8214C44.6381 54.6783 45.0219 55.5322 45.413 56.3826C45.4384 56.4376 45.483 56.4778 45.5351 56.5049C45.6343 56.556 45.763 56.5574 45.8563 56.5041C45.929 56.4625 45.974 56.4018 45.9966 56.3335C46.0247 56.2479 46.0178 56.1505 45.977 56.0615Z" fill="#F28A3D"/>
<path id="Vector_11" d="M48.3546 55.1057C46.9033 52.2021 45.4523 49.298 44.001 46.3945C43.7321 45.8562 43.4626 45.3176 43.1937 44.7793L42.5544 44.9498C43.8937 47.6291 45.2322 50.3086 46.5715 52.9879C46.9781 53.801 47.3841 54.6137 47.7903 55.4274C47.8209 55.4891 47.8628 55.53 47.9088 55.5573C48.0824 55.6576 48.3261 55.5338 48.3794 55.3358C48.3983 55.2662 48.395 55.1875 48.3543 55.1062L48.3546 55.1057Z" fill="#F28A3D"/>
<path id="Vector_12" d="M31.979 45.3275L28.5998 46.2287C28.535 46.246 28.4862 46.2778 28.449 46.3172C28.3831 46.3878 28.3594 46.4828 28.3719 46.5759C28.3958 46.7523 28.5463 46.9152 28.7681 46.8556C32.7937 45.7819 36.8184 44.7085 40.844 43.6348L44.2232 42.7335C44.4456 42.6742 44.4937 42.4589 44.4258 42.2942C44.3772 42.1765 44.2686 42.0849 44.1205 42.0959C44.0992 42.0973 44.0774 42.1007 44.054 42.1069C40.0284 43.1806 36.0037 44.254 31.9781 45.3277L31.979 45.3275Z" fill="#F28A3D"/>
<path id="Vector_13" d="M32.8301 40.8374C32.7662 40.8544 32.7177 40.8857 32.6811 40.9239C32.5908 41.0184 32.5788 41.1605 32.6277 41.2776C32.6833 41.4123 32.8171 41.5131 32.9989 41.4646L37.8043 40.1829C37.9862 40.1344 38.0514 39.9806 38.0318 39.8363C38.0178 39.7339 37.9618 39.637 37.8733 39.5844C37.8094 39.546 37.7291 39.5308 37.6355 39.5558C36.0337 39.983 34.4319 40.4102 32.8301 40.8374Z" fill="#F28A3D"/>
</g>
</g>
<defs>
<clipPath id="clip0_307_4690">
<rect width="49" height="49" fill="white" transform="translate(0 42.8613) rotate(-60)"/>
</clipPath>
</defs>
</svg>
