<svg width="32" height="32" viewBox="0 0 32 32" fill="none" xmlns="http://www.w3.org/2000/svg">
<g id="cutlery 2">
<g id="cutlery 2_2">
<g id="Group">
<path id="Vector" d="M9.3 30.0002C8.69001 30.0002 8.10498 29.7579 7.67365 29.3265C7.24231 28.8952 7 28.3102 7 27.7002L8 15.2002H10.7L11.7 27.7002C11.7003 28.0108 11.6377 28.3183 11.5159 28.6041C11.3941 28.8899 11.2157 29.148 10.9914 29.3629C10.7671 29.5779 10.5016 29.7452 10.2109 29.8547C9.92021 29.9642 9.61035 30.0137 9.3 30.0002Z" stroke="white" stroke-width="2" stroke-linecap="round" stroke-linejoin="round"/>
<path id="Vector_2" d="M9.3 15.2C12.2271 15.2 14.6 12.2451 14.6 8.60001C14.6 4.95493 12.2271 2 9.3 2C6.37289 2 4 4.95493 4 8.60001C4 12.2451 6.37289 15.2 9.3 15.2Z" stroke="white" stroke-width="2" stroke-linecap="round" stroke-linejoin="round"/>
</g>
<g id="Group_2">
<path id="Vector_3" d="M23.2004 29.9997C22.5904 29.9997 22.0054 29.7574 21.574 29.326C21.1427 28.8947 20.9004 28.3097 20.9004 27.6997L21.9004 15.1997H24.6004L25.6004 27.6997C25.6007 28.0103 25.538 28.3178 25.4163 28.6036C25.2945 28.8894 25.116 29.1475 24.8918 29.3625C24.6675 29.5774 24.402 29.7447 24.1113 29.8542C23.8206 29.9637 23.5107 30.0132 23.2004 29.9997Z" stroke="white" stroke-width="2" stroke-linecap="round" stroke-linejoin="round"/>
<path id="Vector_4" d="M27.6996 10.6997C27.6735 11.9023 27.1773 13.0468 26.3174 13.8879C25.4576 14.7291 24.3025 15.2 23.0996 15.1997C21.9061 15.1997 20.7615 14.7256 19.9176 13.8817C19.0737 13.0378 18.5996 11.8932 18.5996 10.6997H27.6996Z" stroke="white" stroke-width="2" stroke-linecap="round" stroke-linejoin="round"/>
<path id="Vector_5" d="M18.5996 2.3999V10.6999" stroke="white" stroke-width="2" stroke-linecap="round" stroke-linejoin="round"/>
<path id="Vector_6" d="M23.0996 2.3999V10.4999" stroke="white" stroke-width="2" stroke-linecap="round" stroke-linejoin="round"/>
<path id="Vector_7" d="M27.6992 2.3999V10.6999" stroke="white" stroke-width="2" stroke-linecap="round" stroke-linejoin="round"/>
</g>
</g>
</g>
</svg>
