<svg width="58" height="89" viewBox="0 0 58 89" fill="none" xmlns="http://www.w3.org/2000/svg">
<g id="&#236;&#130;&#172;&#235;&#158;&#140;&#236;&#157;&#188;&#235;&#159;&#172;&#236;&#138;&#164;&#237;&#138;&#184;" clip-path="url(#clip0_307_4479)">
<g id="Group">
<path id="Vector" d="M36.2115 10.4207C36.2124 10.4026 36.2147 10.3848 36.2156 10.3667C36.3689 8.10469 30.144 1.07302 26.1085 4.7178C26.1085 4.7178 25.8467 4.92718 25.4572 5.38143C24.9741 5.69463 24.135 6.32518 23.659 7.17858C23.2157 7.9719 23.3717 8.50489 23.5442 8.78806C23.0915 10.3049 23.0643 11.8338 23.2281 12.307C23.4461 12.9357 24.1658 13.1036 24.1658 13.1036C24.1658 13.1036 24.6635 14.531 25.858 15.1564C27.0525 15.7817 28.8653 16.4806 30.18 16.4956C31.4947 16.5106 32.262 15.9533 32.262 15.9533C32.262 15.9533 32.6938 16.1127 33.7347 15.5375C34.0818 15.345 34.4569 14.957 34.8079 14.4404C35.2026 14.4503 35.7445 14.1095 36.0978 12.654C36.3054 11.7986 36.2959 11.0322 36.2113 10.422L36.2115 10.4207Z" fill="#1A1A1A"/>
<path id="Vector_2" d="M30.8404 17.0771C30.4182 16.9156 30.9055 15.2034 30.8452 14.5288C30.7448 13.4092 26.4705 14.0337 26.4705 14.0337C26.4705 14.0337 25.0984 16.9663 24.3464 17.34C23.8272 17.4322 23.3097 17.5494 22.8028 17.6988C22.9645 17.9641 23.1397 18.2204 23.344 18.4616C23.7566 18.9499 24.2539 19.3858 24.7834 19.7445C26.7828 21.0985 29.5259 21.2735 31.7384 20.3603C32.3291 20.1165 32.887 19.8011 33.4172 19.4476C33.818 19.1809 33.064 18.273 33.4319 17.9554C31.9757 17.619 31.5836 17.5561 30.8401 17.0783L30.8404 17.0771Z" fill="#ED986B"/>
<g id="Group_2">
<g id="Group_3">
<path id="Vector_3" d="M30.6253 16.3003L25.9767 14.3541C24.91 17.7891 28.6073 19.8559 30.6253 16.3003Z" fill="#1A1A1A"/>
<path id="Vector_4" d="M27.297 5.16053C27.8636 4.39673 29.0069 3.31469 31.9248 4.45039C34.8426 5.58609 35.614 7.72367 35.5361 8.97381C35.4582 10.2239 34.8402 11.2086 34.8402 11.2086L34.7823 11.3302C34.7823 11.3302 34.7786 11.3295 34.7735 11.3285C33.818 13.0203 32.0304 15.5122 30.746 16.2638C29.3201 17.0984 27.4626 17.3288 25.7023 15.5157C23.9833 13.7446 25.2419 9.15625 25.6985 8.18943C25.7748 8.02704 25.8601 7.84554 25.9495 7.657C26.1825 7.01015 26.7821 5.85364 27.2937 5.1638L27.297 5.16053Z" fill="#ED986B"/>
<path id="Vector_5" d="M33.8466 12.2847C33.8466 12.2847 34.7405 12.3695 34.6678 13.348C34.5949 14.3277 32.853 15.7263 32.0235 15.3346C31.2155 14.9524 33.8466 12.2847 33.8466 12.2847Z" fill="#ED986B"/>
<g id="Group_4" opacity="0.6">
<path id="Vector_6" d="M28.3198 12.0822C28.3893 11.9745 28.5421 11.9407 28.6495 12.0114C28.7556 12.0819 28.862 12.1511 28.9682 12.2216C29.0756 12.2924 29.1099 12.4426 29.0389 12.5513C28.9694 12.6589 28.8167 12.6928 28.7093 12.622C28.6031 12.5516 28.4967 12.4823 28.3906 12.4118C28.2832 12.3411 28.2489 12.1908 28.3198 12.0822Z" fill="#C8513A"/>
</g>
<path id="Vector_7" d="M28.3476 8.43747C28.4431 8.41585 28.5255 8.34858 28.5524 8.25864C28.5887 8.13402 28.5057 8.012 28.3658 7.98706C28.3332 7.98063 27.545 7.84235 26.7197 8.05161C26.5785 8.08641 26.4892 8.21496 26.5212 8.33737C26.5532 8.45978 26.6925 8.53418 26.8347 8.49435C27.5359 8.31934 28.2261 8.43833 28.2326 8.43831C28.2715 8.44598 28.3112 8.44335 28.3493 8.4352L28.3476 8.43747Z" fill="#1A1A1A"/>
<path id="Vector_8" d="M32.1684 10.5385C32.1257 10.4505 32.1271 10.3438 32.1814 10.2671C32.2571 10.1607 32.4039 10.1505 32.5104 10.2458C32.5361 10.2678 33.1333 10.799 33.4823 11.5775C33.5422 11.7106 33.4972 11.8596 33.3816 11.9099C33.2658 11.9614 33.1205 11.8976 33.0639 11.7612C32.7655 11.1036 32.2445 10.6357 32.2402 10.6309C32.2102 10.6042 32.1865 10.5721 32.1696 10.5388L32.1684 10.5385Z" fill="#1A1A1A"/>
<g id="Group_5" opacity="0.71">
<path id="Vector_9" d="M33.5048 13.3055C33.6433 13.3706 33.5852 13.851 33.5203 13.9883C33.4552 14.1268 32.8448 14.3444 32.8448 14.3444C32.8448 14.3444 33.3665 13.2391 33.5048 13.3055Z" fill="#D76A3C"/>
</g>
<path id="Vector_10" d="M25.9072 8.48104C25.9072 8.48104 25.2747 7.84375 24.5645 8.52186C23.8543 9.19998 23.9036 11.2814 24.7319 11.6729C25.5398 12.0551 25.9074 8.47978 25.9074 8.47978L25.9072 8.48104Z" fill="#ED986B"/>
<g id="Group_6" opacity="0.71">
<path id="Vector_11" d="M25.3362 9.39269C25.1977 9.32758 24.864 9.67674 24.7992 9.81399C24.7343 9.95125 24.952 10.5616 24.952 10.5616C24.952 10.5616 25.4737 9.4563 25.3364 9.39144L25.3362 9.39269Z" fill="#D76A3C"/>
</g>
<path id="Vector_12" d="M31.6968 12.5162C31.8417 12.7013 32.1818 12.6965 32.2591 12.4965C32.3455 12.2695 32.1107 11.8854 31.9267 11.7135C31.6503 11.4542 31.2765 11.2788 31.0711 11.2814C30.7104 11.2847 30.524 11.5755 30.7138 11.6585C31.504 12.0046 31.5927 12.3822 31.6978 12.5177L31.6968 12.5162Z" fill="#1A1A1A"/>
<path id="Vector_13" d="M26.7361 10.1211C26.5001 10.1072 26.3153 9.82033 26.4405 9.64148C26.5835 9.43873 27.0373 9.4133 27.2848 9.46856C27.656 9.55082 28.0113 9.7604 28.1236 9.93253C28.321 10.235 28.1804 10.5582 28.0051 10.448C27.275 9.98848 26.9076 10.1314 26.7361 10.1211Z" fill="#1A1A1A"/>
</g>
<path id="Vector_14" d="M27.1475 13.0672L29.8828 14.2883C29.8828 14.2883 29.0132 15.239 27.9705 15.0818C26.9277 14.9247 27.1477 13.0659 27.1477 13.0659L27.1475 13.0672Z" fill="white"/>
</g>
<path id="Vector_15" d="M35.4109 6.15843C35.4109 6.15843 35.9233 6.40546 34.5666 4.74881C33.2102 3.09092 30.6466 2.73339 29.8783 3.28917C29.8783 3.28917 28.8805 2.28769 27.1182 3.30652C25.8461 4.04226 24.5251 5.57593 25.6126 5.25394C25.6126 5.25394 24.5914 8.95493 25.6914 8.31836C25.6914 8.31836 26.2821 7.922 27.3154 6.88221C28.1306 6.0617 29.0235 4.99947 29.437 4.58907C29.6242 6.13541 29.9193 7.71733 31.021 8.89323C31.1245 9.00364 31.3245 8.97519 31.4186 8.86847C31.5277 8.74515 31.4983 8.58281 31.3938 8.4709C30.5638 7.58466 30.2586 6.39865 30.0845 5.21628C30.5692 6.24587 31.3575 7.97973 31.9439 8.64578C32.801 9.61955 33.0295 9.20141 33.0295 9.20141C33.0295 9.20141 33.5151 10.1999 33.6298 10.8565C33.7444 11.5131 33.1574 13.1287 33.833 12.7987C34.5073 12.4683 35.7025 11.6066 36.2586 10.7637C36.8144 9.92213 37.0524 7.84637 35.4097 6.15818L35.4109 6.15843Z" fill="#1A1A1A"/>
</g>
<g id="Group_7">
<path id="Vector_16" d="M33.2911 71.3361C33.2911 71.3361 34.3328 78.0362 34.4922 78.8232C34.5793 79.2554 34.7385 80.2753 34.3308 81.0138C33.9966 81.6178 33.105 81.9517 32.979 82.3064C32.6984 83.095 38.5197 83.7971 39.9857 83.9975C41.452 84.197 40.8567 82.1259 40.2822 80.9028C39.7077 79.6798 39.2593 71.9346 39.2597 70.025C39.2588 68.1152 33.2924 71.3364 33.2924 71.3364L33.2911 71.3361Z" fill="#ED986B"/>
<path id="Vector_17" d="M40.0832 80.2711C39.7868 80.431 39.4877 80.4527 39.2531 80.3389C38.8555 80.1453 39.0125 80.1763 38.6657 79.4529C38.3189 78.7296 36.7231 78.261 35.9635 78.8054C35.2029 79.3488 34.9509 79.8 34.5984 79.384C34.5572 79.3351 34.5067 79.3131 34.4498 79.3105C34.3348 79.7488 34.4307 80.3881 34.1342 80.9197C33.8126 81.4993 33.0983 81.966 32.9764 82.3068C32.6958 83.0954 38.5171 83.7975 39.9832 83.9979C41.4492 84.1983 40.8541 82.1263 40.2796 80.9033C40.2014 80.7371 40.1367 80.5225 40.083 80.2719L40.0832 80.2711Z" fill="#6168AC"/>
</g>
<g id="Group_8">
<path id="Vector_18" d="M11.2277 68.246C11.2277 68.246 8.89045 73.0381 8.47869 73.7177C8.06803 74.3985 8.73603 76.6901 8.73743 77.5308C8.73757 78.3713 3.8988 77.0925 2.45657 76.7512C1.01417 76.4108 1.40828 74.5224 2.35531 73.5826C3.30249 72.6419 5.43104 66.6572 6.06697 64.8658C6.70417 63.0747 11.2264 68.2457 11.2264 68.2457L11.2277 68.246Z" fill="#ED986B"/>
<path id="Vector_19" d="M2.75022 73.0607C2.9748 73.3181 3.24844 73.4456 3.50605 73.4227C3.9429 73.384 3.78525 73.3564 4.35208 72.8035C4.91908 72.2497 7.13568 72.6006 7.66765 73.3838C8.19946 74.1678 7.82147 74.5171 8.35465 74.188C8.30512 74.7839 8.46928 75.6792 8.59845 76.4342C8.67428 76.8772 9.92631 77.1177 9.42828 77.6989C8.84576 78.3779 3.89904 77.0907 2.45663 76.7503C1.01423 76.4099 1.40835 74.5215 2.35537 73.5817C2.4835 73.4544 2.61647 73.2761 2.75022 73.0607Z" fill="#6168AC"/>
</g>
<g id="Group_9">
<path id="Vector_20" d="M15.4752 40.1522C15.3044 40.3702 4.90139 65.9186 4.90139 65.9186C4.90139 65.9186 5.57242 67.0575 9.84898 68.0676C14.1255 69.0777 15.5277 69.1022 15.5277 69.1022C15.5277 69.1022 22.5936 52.7107 23.979 50.2158C23.979 50.2158 27.8583 70.7767 28.609 71.511C29.3596 72.2461 37.7991 72.9016 39.11 72.7404C40.4208 72.5791 35.2346 51.51 35.2352 48.9093C35.2358 46.3087 35.3712 44.3227 34.6966 41.2535C34.0219 38.1851 15.474 40.1519 15.474 40.1519L15.4752 40.1522Z" fill="#EA4550"/>
<path id="Vector_21" d="M34.9533 51.5558C34.9675 51.3576 34.9813 51.162 34.9948 50.9677C34.0658 50.5904 33.1379 50.2145 32.209 49.8371C31.9916 49.7487 31.7752 49.6617 31.5578 49.5732C31.4489 49.5296 31.3404 49.4847 31.2328 49.4413C31.1639 49.4134 31.0898 49.3988 31.0583 49.3404C31.0247 49.279 31.0446 49.1447 31.0394 49.0719C31.031 48.9554 31.0224 48.8402 31.014 48.7238L30.9588 47.9575C30.8905 47.006 30.8222 46.0546 30.755 45.1046L30.5257 41.9035C30.5 41.5436 29.9391 41.5832 29.9643 41.9456C30.1056 43.9173 30.2469 45.8891 30.3882 47.8608C30.4228 48.3477 30.4493 48.8356 30.4931 49.3218C30.5123 49.5291 30.5686 49.7071 30.7482 49.8286C30.9484 49.9646 31.2132 50.0376 31.4369 50.1273C32.3477 50.4972 33.2598 50.8673 34.1709 51.236C34.4318 51.3421 34.6916 51.4468 34.9525 51.553L34.9533 51.5558Z" fill="#C22327"/>
<path id="Vector_22" d="M16.3752 45.3251C16.2414 45.6797 16.1051 46.0338 15.9666 46.3861C15.851 46.6817 15.7508 47.0181 15.5363 47.259C15.3304 47.4898 15.0084 47.5881 14.7313 47.7031L13.7058 48.1274C13.605 48.1688 13.5042 48.2103 13.4032 48.253C13.325 48.4842 13.2461 48.7192 13.1663 48.9591L14.7883 48.2884C15.0994 48.1592 15.4397 48.0475 15.715 47.8486C16.0006 47.644 16.1798 47.3505 16.3144 47.0313C16.4632 46.6796 16.5952 46.3208 16.732 45.9642C17.016 45.2243 17.2905 44.4799 17.5549 43.7336C17.8512 42.8982 18.1354 42.0579 18.4086 41.2142C18.4089 41.2129 18.4094 41.2104 18.4096 41.2091C18.1891 41.2557 17.9778 41.3015 17.7774 41.3455C17.3405 42.6828 16.8739 44.0117 16.3759 45.3278L16.3752 45.3251Z" fill="#C22327"/>
<path id="Vector_23" d="M22.0932 46.1869C21.9332 46.0718 21.7732 45.9568 21.613 45.8431C21.4975 45.7603 21.3803 45.6798 21.2666 45.5948C21.1735 45.5243 21.1804 45.4761 21.1667 45.3599C21.0995 44.7674 21.0337 44.1739 20.9665 43.5814C20.861 42.6396 20.7544 41.6975 20.6489 40.7556C20.4618 40.7918 20.2761 40.827 20.0957 40.8619C20.2073 41.852 20.3176 42.8417 20.4292 43.8317C20.464 44.1452 20.4999 44.4601 20.5347 44.7736C20.5671 45.0657 20.5696 45.3845 20.648 45.6687C20.7223 45.9403 20.9717 46.0716 21.1856 46.2247C21.4404 46.4079 21.6955 46.5899 21.9503 46.7732C22.0155 46.8199 22.0944 46.8433 22.1684 46.8383C22.1998 47.0963 22.2299 47.354 22.2625 47.6123C22.3083 47.9696 22.869 47.9313 22.824 47.5702C22.5272 45.2156 22.3014 42.8515 22.1456 40.4829C21.9592 40.5153 21.774 40.548 21.5913 40.5812C21.7145 42.4528 21.8812 44.3225 22.0932 46.1869Z" fill="#C22327"/>
</g>
<path id="Vector_24" d="M18.7926 25.2753C18.7926 25.2753 15.3786 40.0053 15.1428 41.2022C14.9071 42.3991 29.3155 46.5181 35.8842 44.3729C36.619 44.1328 34.7043 35.5065 35.5979 28.3662C36.4916 21.2259 18.7926 25.2753 18.7926 25.2753Z" fill="#4D4D4D"/>
<path id="Vector_25" d="M39.621 22.4267C39.1378 20.3028 35.1735 18.8762 33.4702 17.9197C32.9623 18.5112 32.385 19.038 31.7109 19.4467C30.6146 20.1113 29.34 20.4291 28.0595 20.3661C26.8606 20.3061 25.6737 19.9405 24.6976 19.2329C24.1074 18.8049 23.5841 18.236 23.2287 17.5829C21.9341 17.9163 19.495 18.6087 18.5357 19.5183C16.5558 21.397 14.5349 25.7557 14.5349 25.7557L32.0665 30.5773L33.3399 26.5764L38.7586 29.4545C38.7586 29.4545 40.2499 25.1951 39.6195 22.4277L39.621 22.4267Z" fill="#4D4D4D"/>
<path id="Vector_26" d="M33.5621 22.8853C33.3991 23.2159 33.2887 23.5777 33.1632 23.9235C33.0392 24.2618 32.9189 24.6008 32.7962 24.9393C32.5509 25.6216 32.3204 26.3081 32.09 26.9946C32.033 27.1647 32.324 27.2638 32.3895 27.0966C32.6589 26.4178 32.9268 25.74 33.1818 25.0544C33.3069 24.7176 33.4334 24.3799 33.5572 24.0429C33.6817 23.7021 33.8291 23.358 33.9157 23.0045C33.9673 22.7955 33.6544 22.6948 33.5611 22.8838L33.5621 22.8853Z" fill="#414141"/>
<path id="Vector_27" d="M25.0703 40.3451C24.7738 40.2475 24.5283 40.0166 24.1775 39.8105C24.5079 39.7425 24.766 39.6642 24.8989 39.5925C25.3558 39.3459 20.0335 35.8853 20.0335 35.8853C20.0335 35.8853 18.1398 33.7028 17.7437 33.1904C17.3478 32.6766 20.028 27.3624 20.028 27.3624C20.028 27.3624 15.7634 24.1024 14.5117 25.7214C14.5117 25.7214 11.964 30.1315 11.5569 33.7813C11.1682 37.2585 16.5876 38.8282 18.0333 39.1521L18.0328 39.1546C18.0328 39.1546 19.709 39.5996 21.0593 39.8708C21.5668 40.1625 22.6618 40.7631 23.1779 40.8386C23.8628 40.9383 24.5223 41.0539 25.1594 41.0384C25.7965 41.023 25.8615 40.6066 25.0678 40.3446L25.0703 40.3451Z" fill="#ED986B"/>
<g id="Group_10">
<path id="Vector_28" d="M24.9347 22.4946C24.9347 22.4946 24.873 21.761 24.0305 21.3224C23.187 20.8823 20.8685 23.2149 20.4382 23.4589C20.0079 23.703 20.7675 24.5623 21.5047 24.7075C22.2419 24.8527 22.9268 23.2237 23.296 23.2965C23.6652 23.3692 24.4447 23.7967 24.6123 23.5022C24.7801 23.2065 24.9359 22.4949 24.9359 22.4949L24.9347 22.4946Z" fill="#F6F1F0"/>
<path id="Vector_29" d="M24.6901 23.1939C24.6901 23.1939 22.524 27.0112 22.491 28.6629C22.4579 30.3145 22.4022 30.5971 21.6733 31.5755C20.9444 32.5539 20.6006 32.4379 20.6006 32.4379C20.6006 32.4379 20.7243 31.1942 19.7459 30.4653C18.7675 29.7364 17.4724 32.8472 17.4724 32.8472C17.4724 32.8472 16.9141 31.4692 16.2483 31.6303C15.5825 31.7914 15.8118 33.1046 16.0211 34.2678C16.2316 35.4312 15.8215 36.7647 16.6482 37.0254C17.4748 37.286 18.1688 37.227 18.5737 37.6486C18.9786 38.0701 16.2006 41.523 18.5997 43.458C20.2194 44.7659 21.5791 44.7976 22.2922 44.681C22.4122 44.6616 22.4112 44.4879 22.2909 44.4694C21.6271 44.3687 20.3566 43.9371 19.7355 43.4208C18.813 42.6533 18.52 41.882 18.8918 40.4914C19.2635 39.1008 20.2643 38.2255 20.4062 38.2535C20.5482 38.2815 22.0244 39.4502 23.0859 39.7572C23.0859 39.7572 22.7788 40.5747 24.0272 40.6745C25.2757 40.7742 27.0382 39.9994 28.2368 39.1135C29.4354 38.2276 27.6506 37.6321 27.0219 37.8501C27.0219 37.8501 27.8449 36.7846 28.2352 35.6507C28.6918 34.3264 27.1518 34.4615 26.8609 34.2098C26.5699 33.9581 27.8173 30.8378 28.8307 30.4021C29.8426 29.9674 30.6267 28.4636 30.6267 28.4636C30.6267 28.4636 30.3675 29.5345 30.6968 29.8434C31.026 30.1522 31.3907 29.7843 32.2505 28.3934C33.1102 27.0024 33.0515 26.3072 32.6184 25.7835C32.1856 25.2586 31.566 25.4301 31.2847 25.3747C31.0034 25.3193 31.442 24.576 32.1613 23.4013C32.8809 22.2253 30.0699 20.8915 30.0699 20.8915C30.0699 20.8915 26.3969 23.1922 24.6894 23.1977L24.6901 23.1939Z" fill="#F6F1F0"/>
<path id="Vector_30" d="M38.1199 28.5058C38.1199 28.5058 38.8204 29.0757 38.759 29.4536C38.6991 29.8306 37.2476 29.6426 36.6879 29.2649C36.1285 28.886 38.1184 28.5069 38.1184 28.5069L38.1199 28.5058Z" fill="black"/>
<path id="Vector_31" d="M27.1619 26.1099C27.1619 26.1099 26.5331 24.9972 26.352 23.4064C26.1708 21.8156 25.8431 21.327 25.3545 21.6548C24.8659 21.9826 24.7879 23.4519 24.4221 23.5207C24.055 23.5893 23.5513 23.2788 23.1976 23.2795C22.8439 23.2803 21.4221 25.1203 21.8586 25.7725C22.295 26.4246 21.4825 27.324 22.2185 27.8929C22.9544 28.4619 22.3847 28.8441 22.807 29.2104C23.2293 29.5767 23.6778 29.4524 24.5907 29.8448C25.5023 30.2371 30.2941 34.8808 32.0355 35.366C33.7783 35.8502 35.7565 33.6958 36.582 32.0214C37.4065 30.3456 38.1219 28.5087 38.1219 28.5087C38.1219 28.5087 33.7868 24.4872 32.8691 26.5035C32.379 27.5811 32.2588 28.1315 31.8938 28.554C31.5275 28.9763 27.1639 26.1129 27.1639 26.1129L27.1619 26.1099Z" fill="#ED986B"/>
<path id="Vector_32" d="M32.9122 26.4038C32.9122 26.4038 32.9519 26.9974 32.742 27.7649C32.4266 28.9226 31.7457 30.3723 31.2236 30.3008C29.8376 30.1113 30.7579 28.0421 30.9808 27.281C31.2038 26.52 32.911 26.4035 32.911 26.4035L32.9122 26.4038Z" fill="#F6F1F0"/>
<path id="Vector_33" d="M31.0564 26.9973C31.0717 26.8999 31.0124 26.8034 30.9132 26.7839C30.8077 26.7631 30.7301 26.8326 30.6997 26.9271C30.6253 27.159 30.5753 27.3996 30.5233 27.6373C30.4713 27.8749 30.419 28.1138 30.3833 28.3546C30.3702 28.4408 30.4212 28.5265 30.5104 28.5441C30.6046 28.5626 30.6717 28.5002 30.6998 28.417C30.7757 28.1841 30.8355 27.9466 30.8963 27.7107C30.9571 27.4748 31.0194 27.2379 31.0564 26.9973Z" fill="#DCC2A9"/>
<path id="Vector_34" d="M23.9959 22.3933C23.9373 22.353 23.8341 22.3536 23.7886 22.419C23.7561 22.4647 23.7316 22.503 23.7093 22.5364C23.6821 22.5754 23.6548 22.6144 23.6266 22.6519C23.5716 22.7259 23.5198 22.8031 23.4638 22.8755C23.3498 23.024 23.2264 23.1667 23.0935 23.2984C23.0334 23.3583 23.0428 23.4762 23.1082 23.5283C23.1825 23.5886 23.2711 23.576 23.3382 23.5135C23.6086 23.2667 23.8853 22.9481 24.0514 22.5947C24.0851 22.523 24.064 22.438 23.9971 22.3935L23.9959 22.3933Z" fill="#DCC2A9"/>
<path id="Vector_35" d="M27.6849 38.7285C27.6849 38.7285 27.6854 38.726 27.6856 38.7248C27.6896 38.7047 27.6938 38.6833 27.6927 38.6622C27.6893 38.6133 27.6679 38.5634 27.6434 38.5221C27.6108 38.4687 27.5565 38.4201 27.4989 38.3944C27.3911 38.3458 27.2565 38.3402 27.1464 38.3889C27.0835 38.417 27.0229 38.4533 26.9819 38.5092C26.9326 38.5738 26.8962 38.6528 26.8879 38.7346C26.8784 38.8293 26.8859 38.9169 26.915 39.0074C26.9373 39.0797 26.9742 39.1508 27.015 39.215C27.0529 39.2746 27.1384 39.3241 27.2104 39.3096C27.2769 39.2966 27.3253 39.2826 27.3842 39.2486C27.4238 39.2263 27.4576 39.1939 27.4886 39.1621C27.5412 39.1073 27.5821 39.0384 27.6176 38.971C27.6408 38.926 27.66 38.8815 27.6747 38.8335C27.6851 38.8003 27.6883 38.7644 27.6872 38.7303L27.6849 38.7285Z" fill="#EA7674"/>
<path id="Vector_36" d="M27.2611 37.4564C26.771 37.4472 26.2774 37.5822 25.8139 37.7297C25.5869 37.8024 25.3633 37.8849 25.1436 37.9799C24.9167 38.0787 24.6647 38.1791 24.4658 38.3278C24.3128 38.4425 24.4273 38.7025 24.6194 38.6347C24.841 38.5557 25.0528 38.4343 25.2702 38.3441C25.4906 38.2518 25.7133 38.1678 25.9402 38.0951C26.3932 37.9482 26.8624 37.871 27.3187 37.7404C27.4875 37.6914 27.4157 37.4594 27.2598 37.4561L27.2611 37.4564Z" fill="#4D4D4D"/>
<path id="Vector_37" d="M17.7377 34.2814C17.7271 34.0836 17.7162 33.8871 17.7056 33.6893C17.6841 33.3015 17.6581 32.9167 17.6128 32.5308C17.5894 32.3383 17.3174 32.3617 17.3149 32.553C17.31 32.9421 17.324 33.3284 17.3439 33.7172L17.3727 34.2865C17.382 34.4775 17.3699 34.6916 17.4276 34.8752C17.4773 35.0337 17.713 35.0097 17.7451 34.853C17.781 34.6708 17.7483 34.4661 17.7377 34.2814Z" fill="#DCC2A9"/>
<path id="Vector_38" d="M16.3409 33.3789C16.3494 33.2696 16.34 33.1582 16.2963 33.0557C16.2758 33.0073 16.2503 32.9579 16.2183 32.915C16.179 32.8629 16.1248 32.8001 16.0653 32.7714C16.0152 32.7472 15.962 32.7393 15.9093 32.7485C15.8975 32.7488 15.8849 32.7463 15.8739 32.7494C15.8127 32.7621 15.7669 32.8092 15.7528 32.8677C15.7408 32.8888 15.731 32.9117 15.7236 32.9363C15.695 33.0285 15.7041 33.1282 15.7588 33.2081C15.7658 33.2186 15.7749 33.2256 15.7837 33.2339C15.8062 33.3649 15.8379 33.4951 15.8837 33.6202C15.9085 33.6864 15.9637 33.7377 16.034 33.7515C16.0968 33.7639 16.1843 33.7433 16.2228 33.687C16.2866 33.5952 16.3312 33.4944 16.3407 33.3801L16.3409 33.3789Z" fill="#EA7674"/>
<path id="Vector_39" d="M16.6023 32.309L16.5989 32.3592C16.603 32.3183 16.608 32.2866 16.5923 32.247C16.5857 32.234 16.5792 32.221 16.5728 32.2067C16.561 32.1874 16.5446 32.1711 16.5245 32.1606C16.5122 32.1504 16.4991 32.1439 16.4828 32.1407C16.4612 32.1312 16.4383 32.128 16.4132 32.1296C16.3969 32.1329 16.3768 32.1354 16.3613 32.1415C16.3289 32.1534 16.3056 32.1723 16.2814 32.1962C16.2926 32.1854 16.3049 32.1761 16.3162 32.1652C16.3131 32.1673 16.3114 32.1695 16.3086 32.1703C16.2878 32.1831 16.2701 32.2005 16.2578 32.2229C16.2503 32.2345 16.2431 32.2448 16.2356 32.2564C16.2298 32.2657 16.2241 32.275 16.2186 32.283C16.2069 32.3029 16.1939 32.3225 16.1834 32.3426C16.1729 32.3627 16.1622 32.3841 16.1529 32.4045C16.1422 32.4258 16.1355 32.4467 16.1273 32.4685C16.115 32.4909 16.1091 32.5145 16.1096 32.5381C16.1049 32.562 16.1083 32.5848 16.1181 32.6076C16.1244 32.6219 16.1323 32.6352 16.1386 32.6495C16.1514 32.6703 16.1681 32.6853 16.1879 32.6971C16.2003 32.7073 16.2143 32.7153 16.2307 32.7185C16.2535 32.7282 16.2776 32.7317 16.3017 32.7286C16.3472 32.7232 16.3938 32.705 16.4233 32.6678C16.4613 32.6204 16.4936 32.5694 16.526 32.5171C16.5378 32.4972 16.5495 32.4773 16.5603 32.456C16.5647 32.4464 16.5692 32.4369 16.5737 32.4273C16.576 32.4225 16.5782 32.4178 16.5805 32.413C16.5982 32.376 16.6041 32.3459 16.6017 32.305L16.6023 32.309Z" fill="#EA7674"/>
<path id="Vector_40" d="M16.0107 32.4066C16.0073 32.3903 16.0078 32.3748 16.0072 32.3577C16.01 32.3439 16.0099 32.3308 16.0089 32.3163C16.0084 32.3057 16.0078 32.2952 16.0088 32.2836C16.0073 32.2912 16.0086 32.2979 16.0071 32.3055C16.0108 32.2866 16.0105 32.2683 16.0062 32.2505C16.0036 32.2304 15.9965 32.2134 15.9854 32.1968C15.9769 32.1873 15.9683 32.1778 15.96 32.167C15.9446 32.1523 15.9281 32.1438 15.9082 32.1386C15.8964 32.1323 15.8826 32.1296 15.8693 32.1309C15.8492 32.127 15.8304 32.1298 15.8105 32.1376C15.799 32.1432 15.7875 32.1487 15.7757 32.1555C15.7532 32.1707 15.7364 32.1895 15.7252 32.2134C15.7192 32.224 15.7147 32.2335 15.7099 32.2443C15.7025 32.2624 15.696 32.282 15.691 32.3006C15.6863 32.318 15.6871 32.3403 15.6874 32.3586C15.6877 32.3704 15.6893 32.3825 15.6908 32.3945C15.6951 32.4189 15.6992 32.4444 15.7076 32.4683C15.7142 32.4878 15.7238 32.5054 15.7381 32.5186C15.7505 32.5354 15.7663 32.5477 15.7854 32.5567C15.799 32.5606 15.8123 32.5659 15.8259 32.5698C15.8472 32.5741 15.8681 32.5742 15.8876 32.5677C15.9009 32.5664 15.9135 32.5623 15.9255 32.5542C15.944 32.5462 15.9606 32.5351 15.9741 32.5195C15.9816 32.5079 15.9888 32.4976 15.9963 32.486C16.0093 32.4599 16.0145 32.4335 16.0124 32.4044L16.0107 32.4066Z" fill="#EA7674"/>
<path id="Vector_41" d="M27.8018 37.9908C27.8009 37.9685 27.7946 37.9477 27.7827 37.9284C27.7749 37.9086 27.7615 37.8903 27.7447 37.8765C27.7213 37.8563 27.6951 37.8433 27.665 37.8373C27.6436 37.8331 27.6248 37.8294 27.601 37.8313C27.5972 37.8305 27.5942 37.8325 27.5902 37.8331L27.5776 37.8306C27.5611 37.8351 27.546 37.8387 27.5297 37.842C27.5152 37.8496 27.5009 37.8559 27.4863 37.8635C27.4833 37.8655 27.4803 37.8675 27.4773 37.8695C27.4713 37.8736 27.4663 37.8791 27.4603 37.8831L27.4257 37.9129C27.4092 37.9305 27.3972 37.9516 27.3915 37.974C27.3848 37.9883 27.3816 38.0046 27.3824 38.0204C27.3777 38.0443 27.381 38.0671 27.3908 38.0899C27.3972 38.1042 27.405 38.1175 27.4116 38.1305C27.4224 38.1418 27.4317 38.1541 27.4413 38.1651C27.4589 38.1816 27.48 38.1936 27.5024 38.1993C27.5252 38.209 27.5481 38.2122 27.5734 38.2094L27.584 38.2089C27.6038 38.2076 27.6191 38.2027 27.6409 38.1979C27.645 38.1974 27.6477 38.1966 27.6517 38.1961C27.6517 38.1961 27.653 38.1964 27.6542 38.1966C27.6568 38.1971 27.6961 38.1762 27.6991 38.1741C27.7064 38.1704 27.7126 38.1651 27.7179 38.1583C27.7179 38.1583 27.7181 38.157 27.7184 38.1558C27.7304 38.1477 27.7412 38.1394 27.7514 38.127C27.7632 38.1137 27.7752 38.0926 27.7864 38.0752C27.7997 38.0478 27.8056 38.0177 27.8038 37.9873L27.8018 37.9908Z" fill="#EA7674"/>
<path id="Vector_42" d="M28.3867 38.3326C28.3768 38.3033 28.3594 38.279 28.3362 38.2575C28.333 38.2542 28.3282 38.252 28.3249 38.2487C28.3169 38.2432 28.3075 38.2375 28.2995 38.232C28.2914 38.2265 28.2847 38.2212 28.2764 38.217C28.2605 38.2113 28.2447 38.2055 28.2274 38.2008C28.206 38.1966 28.1837 38.1974 28.1628 38.1972C28.1578 38.1962 28.151 38.1975 28.1458 38.1978C28.135 38.1996 28.1242 38.2014 28.1134 38.2031C28.0931 38.207 28.0727 38.2108 28.0522 38.2159C28.0316 38.221 28.0141 38.2305 27.9963 38.2414C28.0106 38.2351 28.0238 38.2273 28.0381 38.2209C28.0296 38.2245 28.0211 38.228 28.0126 38.2316C27.9968 38.2389 27.9755 38.2477 27.9634 38.2558C27.9499 38.2649 27.9386 38.2757 27.9269 38.289C27.9191 38.2953 27.9116 38.3004 27.9063 38.3072C27.9013 38.3127 27.8991 38.3175 27.8953 38.3233C27.8918 38.3278 27.8861 38.3306 27.8838 38.3354C27.8716 38.3512 27.8626 38.3703 27.8599 38.3907C27.8584 38.4047 27.8585 38.4178 27.857 38.4318C27.8581 38.4529 27.8636 38.471 27.8732 38.4885C27.8773 38.5011 27.8843 38.5116 27.8944 38.5201C27.9068 38.5369 27.9214 38.5489 27.9407 38.5566C27.9543 38.5606 27.9663 38.5656 27.9799 38.5695C27.9925 38.572 28.0043 38.5717 28.0161 38.5715C28.0211 38.5724 28.0264 38.5722 28.0316 38.5719C28.057 38.5756 28.0836 38.573 28.1095 38.5742C28.0926 38.5735 28.0773 38.5718 28.0605 38.5711C28.0849 38.5733 28.1107 38.5744 28.1356 38.5741C28.1421 38.5741 28.1486 38.5741 28.1551 38.5741C28.1911 38.5772 28.2242 38.5811 28.2585 38.5657C28.2656 38.5632 28.2713 38.5604 28.2786 38.5566C28.3378 38.5344 28.3826 38.4858 28.3949 38.423C28.4011 38.3916 28.3993 38.3612 28.3884 38.3304L28.3867 38.3326Z" fill="#EA7674"/>
<path id="Vector_43" d="M28.4247 38.7686C28.4141 38.7365 28.3946 38.7092 28.3702 38.6874C28.3692 38.6859 28.367 38.6842 28.366 38.6827C28.3521 38.6734 28.337 38.6639 28.3234 38.6534C28.3234 38.6534 28.3209 38.6529 28.3199 38.6514L28.2699 38.6337C28.2699 38.6337 28.2661 38.633 28.2636 38.6325C28.2611 38.632 28.2586 38.6315 28.2561 38.631C28.2448 38.6288 28.2335 38.6266 28.2234 38.6246C28.1971 38.6194 28.1695 38.6205 28.1436 38.6193C28.1386 38.6183 28.1318 38.6196 28.1268 38.6186C28.1205 38.6174 28.1147 38.6201 28.108 38.6214L28.1135 38.6199C28.1057 38.6197 28.0967 38.6192 28.0889 38.619C28.0826 38.6177 28.0768 38.6205 28.0701 38.6218C28.062 38.6228 28.0537 38.6251 28.0445 38.6259C28.0419 38.6254 28.0392 38.6261 28.0352 38.6266C28.0327 38.6262 28.0297 38.6282 28.0269 38.6289C28.0229 38.6294 28.0189 38.63 28.0146 38.6317C28.0078 38.633 28.0011 38.6343 27.9928 38.6366C27.972 38.6429 27.9542 38.6537 27.9394 38.6691C27.9274 38.6772 27.9174 38.6882 27.9109 38.7013C27.8971 38.7182 27.8879 38.7385 27.8847 38.7614C27.8842 38.777 27.8828 38.791 27.8823 38.8066L27.891 38.8487C27.9006 38.8793 27.9243 38.9049 27.9504 38.9244C27.957 38.9309 27.9638 38.9361 27.9708 38.9401C27.9708 38.9401 27.9733 38.9406 27.9731 38.9419C27.9756 38.9424 27.9779 38.9441 27.9801 38.9459C27.9882 38.9514 27.9962 38.9569 28.0055 38.9626C28.0093 38.9634 28.0138 38.9669 28.0176 38.9676C28.0249 38.9703 28.0334 38.9733 28.0407 38.9761C28.0395 38.9758 28.0382 38.9756 28.0372 38.9741C28.042 38.9763 28.0465 38.9798 28.0513 38.9821C28.0563 38.9831 28.0621 38.9868 28.0671 38.9878C28.0925 38.998 28.1179 39.0082 28.1453 39.0149C28.1553 39.0169 28.1654 39.0189 28.1767 39.0211C28.1905 39.0238 28.2048 39.024 28.2188 39.0255C28.2522 39.0282 28.2432 39.0277 28.2746 39.0208C28.2921 39.0178 28.2946 39.0183 28.3062 39.0127C28.3383 39.0021 28.3653 38.9839 28.3873 38.9582C28.4109 38.9316 28.4258 38.9019 28.4325 38.868C28.4392 38.8341 28.4368 38.7997 28.4249 38.7673L28.4247 38.7686Z" fill="#EA7674"/>
<path id="Vector_44" d="M28.0642 39.3201C28.0642 39.3201 28.0647 39.3175 28.065 39.3163C28.0642 39.307 28.0634 39.3042 28.0599 39.2892C28.0604 39.2802 28.0578 39.2731 28.054 39.2659C28.052 39.2629 28.0513 39.2601 28.0495 39.2558C28.0495 39.2558 28.05 39.2533 28.0487 39.2531C28.0401 39.2305 28.027 39.211 28.0124 39.1924C28.0114 39.1909 28.0104 39.1894 28.0094 39.1879C28.0099 39.1854 28.0079 39.1824 28.0074 39.1784C28.0013 39.1563 27.9892 39.1383 27.9738 39.1235C27.9657 39.1115 27.9547 39.1015 27.9416 39.095C27.9235 39.081 27.9031 39.0718 27.8803 39.0686L27.8351 39.0662C27.8203 39.0685 27.8065 39.0723 27.7917 39.0746C27.7696 39.0807 27.7515 39.0928 27.7368 39.1081C27.7185 39.1215 27.7047 39.1384 27.6955 39.1587C27.6893 39.1771 27.6798 39.1987 27.6771 39.219C27.6761 39.224 27.6761 39.2306 27.6764 39.2358C27.6722 39.2572 27.6666 39.2196 27.6723 39.2898C27.6741 39.3071 27.6787 39.3237 27.683 39.3415C27.6848 39.3458 27.685 39.351 27.688 39.3556C27.6961 39.3741 27.7045 39.3914 27.7141 39.4089C27.7158 39.4132 27.7191 39.4165 27.7221 39.421C27.7327 39.4335 27.7435 39.4448 27.7541 39.4573C27.7727 39.4753 27.7941 39.486 27.8177 39.492C27.819 39.4922 27.8215 39.4927 27.8228 39.493C27.8481 39.5032 27.8768 39.5101 27.9034 39.5076C27.9184 39.504 27.9332 39.5017 27.9483 39.4981C27.9483 39.4981 27.9498 39.4971 27.9513 39.4961C27.9525 39.4964 27.9541 39.4954 27.9556 39.4943C27.9686 39.4878 27.9816 39.4812 27.9947 39.4747C28.014 39.4628 28.0287 39.4474 28.039 39.4286C28.049 39.4175 28.0555 39.4044 28.0584 39.3894C28.0677 39.369 28.0709 39.3461 28.0688 39.3236L28.0642 39.3201Z" fill="#EA7674"/>
</g>
<g id="Group_11">
<path id="Vector_45" d="M37.2745 17.4299C36.6711 16.6652 33.9931 17.9681 33.3711 17.5756C32.7489 17.1843 31.8233 16.1409 31.285 15.8731C30.7455 15.6051 31.1329 13.3669 30.3237 12.8318C29.5148 12.2955 29.0674 15.435 28.6546 15.5703C28.0436 15.7709 27.3238 16.6963 26.8945 17.5315C26.6764 17.7377 26.3859 17.7953 26.248 18.0317C26.0884 18.3055 26.1878 18.4699 26.1878 18.4699C26.1878 18.4699 26.3108 18.6533 26.3197 19.0125C26.3239 19.1699 26.3206 19.3388 26.3153 19.4787C26.1392 19.8758 25.8764 20.1568 25.6345 20.5175C25.6345 20.5175 25.1679 20.8926 26.0133 22.4225C26.9935 24.1954 28.2013 23.19 28.6678 23.5507C29.1355 23.9115 29.7353 23.7479 31.9074 23.0994C34.0807 22.4511 34.0882 21.5916 34.6145 20.8341C35.1407 20.0767 37.8795 18.1935 37.276 17.4288L37.2745 17.4299Z" fill="#F6F1F0"/>
<path id="Vector_46" d="M27.239 21.0747C27.2362 20.9033 27.1216 20.7698 26.9803 20.6859C26.9184 20.6489 26.6028 20.5424 26.5124 20.518C26.3548 20.4766 26.1938 20.4462 26.0316 20.4351C25.8913 20.4257 25.7893 20.5061 25.7868 20.6517C25.7868 20.6517 25.7668 21.0444 25.9488 21.3986C26.046 21.5873 26.2123 21.6174 26.388 21.5999C26.5373 21.5836 27.0858 21.4151 27.1489 21.3401C27.2119 21.2651 27.2408 21.1716 27.2402 21.075L27.239 21.0747Z" fill="#EA7674"/>
<path id="Vector_47" d="M26.9542 18.5597C26.914 18.4461 26.8286 18.3562 26.7255 18.2968C26.6868 18.2748 26.6413 18.2606 26.5948 18.2515C26.581 18.2488 26.5672 18.246 26.5531 18.2446C26.5378 18.2429 26.522 18.2437 26.5075 18.2447C26.4668 18.2458 26.4277 18.2525 26.391 18.2661C26.2434 18.3271 26.1632 18.4626 26.137 18.6153C26.1173 18.7354 26.1141 18.8639 26.1361 18.9843C26.1483 19.0481 26.1596 19.1168 26.1853 19.178C26.2288 19.2818 26.3046 19.3607 26.4179 19.3817C26.5699 19.4116 26.6885 19.3058 26.7575 19.1811C26.7737 19.1647 26.7885 19.1494 26.8025 19.1313C26.8455 19.0784 26.8858 19.0198 26.9162 18.958C26.9756 18.8353 27.0005 18.6889 26.9547 18.5572L26.9542 18.5597Z" fill="#343434"/>
<path id="Vector_48" d="M31.1164 20.3657C31.0702 20.183 30.8886 20.0455 30.7067 20.0214C30.3446 19.9723 30.0092 20.2376 29.8178 20.5208C29.7535 20.6152 29.7134 20.7129 29.71 20.8297C29.7073 20.9361 29.7606 21.0497 29.8426 21.1167C29.9808 21.23 30.1663 21.2287 30.3301 21.1853C30.3891 21.1839 30.4488 21.1722 30.5032 21.1542C30.5855 21.1274 30.6627 21.0865 30.7394 21.0481C30.8176 21.0087 30.8857 20.9608 30.9508 20.9019C31.0988 20.7666 31.1642 20.5603 31.1152 20.3654L31.1164 20.3657Z" fill="#343434"/>
<path id="Vector_49" d="M29.0468 22.6403C28.503 22.8842 27.928 23.1936 27.3172 22.9963C27.1908 22.9558 27.0688 22.8926 26.9669 22.8073C26.8595 22.717 26.7895 22.5884 26.6721 22.5092C26.58 22.4467 26.473 22.4204 26.3647 22.4004C26.2555 22.3789 26.1071 22.3836 26.0431 22.2783C25.9492 22.1255 25.8107 22.213 25.8952 22.3666C26.0431 22.6358 26.2627 22.6138 26.4865 22.7492C26.6148 22.8267 26.6953 22.9939 26.8176 23.0884C26.9432 23.1862 27.0845 23.2571 27.2352 23.3064C27.8968 23.5241 28.6191 23.2749 29.1983 22.9441C29.3644 22.849 29.2253 22.562 29.0465 22.6416L29.0468 22.6403Z" fill="#DCC2A9"/>
<path id="Vector_50" d="M30.0949 15.2056C29.8581 15.189 29.6112 15.2238 29.3791 15.2694C29.143 15.3156 28.9118 15.377 28.6856 15.459C28.4915 15.5303 28.5953 15.8313 28.7914 15.7629C28.9945 15.692 29.2027 15.6352 29.4147 15.5987C29.5216 15.5793 29.63 15.5654 29.7382 15.5528C29.8501 15.5409 29.9638 15.5398 30.076 15.5267C30.1563 15.5164 30.2217 15.4563 30.2247 15.3747C30.2285 15.3023 30.1773 15.2114 30.0949 15.2056Z" fill="#DCC2A9"/>
<path id="Vector_51" d="M36.7199 18.0736C36.6705 17.9334 36.3843 18.0153 36.2431 18.0697C35.4924 18.3576 34.8788 18.5185 34.1637 18.8839C34.0316 18.9518 34.0058 19.162 34.0867 19.2745C34.1964 19.4265 34.2701 19.5624 34.3321 19.7311C34.385 19.8733 34.5451 19.9544 34.6906 19.9048C34.832 19.8557 34.9169 19.6898 34.8642 19.5463C34.8243 19.438 34.7773 19.3322 34.723 19.2302C35.3196 18.9367 35.6806 18.6804 36.3002 18.4423C36.4414 18.388 36.773 18.221 36.7224 18.0741L36.7199 18.0736Z" fill="#DCC2A9"/>
</g>
<path id="Vector_52" d="M20.4063 38.2523C20.4063 38.2523 20.9539 37.9622 21.6115 37.2998C22.2703 36.6377 22.6616 37.7637 22.3184 38.1553C21.3821 39.2194 22.1812 39.3155 22.1812 39.3155C22.1812 39.3155 19.3282 39.4933 20.4063 38.2523Z" fill="#ED986B"/>
<path id="Vector_53" d="M20.6554 25.1767C20.3804 25.6456 20.1564 26.1469 19.9359 26.6436C19.7205 27.1282 19.4739 27.6315 19.3459 28.149C19.3052 28.3158 19.5386 28.3761 19.6185 28.2418C19.8871 27.7859 20.0723 27.2692 20.2901 26.7864C20.5088 26.2985 20.7434 25.8163 20.9417 25.3192C21.017 25.1292 20.7611 24.9979 20.6567 25.1769L20.6554 25.1767Z" fill="#ED986B"/>
<path id="Vector_54" d="M8.82238 76.3278C8.0031 75.8973 7.13572 75.6688 6.22596 75.6674C5.97782 75.6666 5.82516 76.4296 6.07604 76.4286C6.94897 76.4299 7.79118 76.6294 8.57842 77.0416C8.67428 77.0918 8.78973 77.0304 8.86299 76.8213C8.92324 76.6481 8.91869 76.3756 8.82398 76.3257L8.82238 76.3278Z" fill="#333A74"/>
</g>
<defs>
<clipPath id="clip0_307_4479">
<rect width="42" height="82" fill="white" transform="translate(15.8467) rotate(11.1426)"/>
</clipPath>
</defs>
</svg>
