<svg width="200" height="80" viewBox="0 0 200 80" fill="none" xmlns="http://www.w3.org/2000/svg">
<g id="Group 1">
<path id="Vector" d="M56.734 79.0123C34.3921 79.0123 19.1745 73.6104 10.2109 62.4995C1.15747 51.2835 0 35.7967 0 23.5634V20.2573H14.3383V26.3959H6.30776C6.60386 41.5056 9.36743 51.5378 15.1458 58.7024C22.8354 68.2435 36.4468 72.8737 56.734 72.8737C77.0211 72.8737 90.8389 68.1032 98.5016 58.299C105.572 49.249 106.981 36.393 107.169 25.519H97.7927V42.1984H91.5119V19.3804H113.477V22.6864C113.477 35.0601 112.346 50.7135 103.499 62.026C94.5716 73.4525 79.2732 79.0123 56.734 79.0123Z" fill="#FF854C"/>
<path id="Vector_2" d="M16.837 0.00127916L16.5439 5.25513L97.3482 9.55986L97.6412 4.30601L16.837 0.00127916Z" fill="#FF854C"/>
<path id="Vector_3" d="M97.8376 11.751H17.0391V17.0126H97.8376V11.751Z" fill="#FF854C"/>
<path id="Vector_4" d="M59.04 42.4177V36.2791C61.355 36.2791 63.9212 34.4901 66.0925 31.3594C68.1473 28.3954 69.529 24.5456 69.529 21.792V6.98926H75.8099V21.792C75.8099 29.9037 68.6049 42.4177 59.04 42.4177Z" fill="#FF854C"/>
<path id="Vector_5" d="M52.3824 20.9678H46.1016V44.1015H52.3824V20.9678Z" fill="#FF854C"/>
<path id="Vector_6" d="M56.7338 29.4565H49.2417V35.5951H56.7338V29.4565Z" fill="#FF854C"/>
<path id="Vector_7" d="M52.3822 63.0344H17.8555V45.8289H24.1363V56.8958H46.1013V45.8289H52.3822V63.0344Z" fill="#FF854C"/>
<path id="Vector_8" d="M49.2419 47.8284H20.9961V53.967H49.2419V47.8284Z" fill="#FF854C"/>
<g id="Group">
<path id="Vector_9" d="M45.1951 43.049H17.8555V21.0115H24.1363V36.9104H38.9142V21.0115H45.1951V43.049Z" fill="#FF854C"/>
<path id="Vector_10" d="M42.0459 27.8428H20.9961V33.9814H42.0459V27.8428Z" fill="#FF854C"/>
</g>
<path id="Vector_11" d="M77.2813 64.4288C66.4333 64.4288 58.2593 59.8687 58.2593 53.8354C58.2593 50.6521 60.1166 43.2332 77.2813 43.2332C88.1292 43.2332 96.3032 47.7932 96.3032 53.8354C96.3032 59.8775 88.1202 64.4288 77.2813 64.4288ZM77.2813 49.363C68.4791 49.363 64.5401 51.5992 64.5401 53.8266C64.5401 55.3612 69.502 58.2815 77.2813 58.2815C85.0605 58.2815 90.0224 55.3525 90.0224 53.8266C90.0224 52.3007 85.0605 49.363 77.2813 49.363Z" fill="#FF854C"/>
<path id="Vector_12" d="M90.2918 42.4703C80.727 42.4703 73.522 29.9563 73.522 21.8446V6.12109H79.8028V21.8446C79.8028 24.5982 81.1846 28.448 83.2393 31.4121C85.4107 34.534 87.9769 36.3317 90.2918 36.3317V42.4703Z" fill="#FF854C"/>
<g id="Group_2">
<path id="Vector_13" d="M143.661 32.7718C143.661 38.621 138.169 42.804 130.893 42.804C123.616 42.804 118.071 38.6122 118.026 32.7718C118.08 26.9226 123.562 22.7396 130.893 22.7396C138.223 22.7396 143.661 26.9313 143.661 32.7718ZM125.195 44.9437H157.165V57.2209H132.481V59.3606H158.331V64.7187H125.312V52.2486H149.789V50.2054H125.204V44.9437H125.195ZM130.893 37.3494C134.168 37.3056 136.483 35.7446 136.483 32.7718C136.483 29.7989 134.159 28.3432 130.893 28.2906C127.627 28.3432 125.195 29.8954 125.303 32.7718C125.195 35.7446 127.627 37.3056 130.893 37.3494ZM149.78 21.5732H157.165V43.2951H149.78V21.5732Z" fill="#FF854C"/>
<path id="Vector_14" d="M162.019 25.0717H184.172V30.6228H169.403V37.2437H182.485V42.6018H169.403V50.0031C175.415 50.0031 180.484 49.7576 186.074 49.0297L186.81 54.4843C179.901 55.3612 173.62 55.6068 165.814 55.6506H162.019V25.0717ZM200 65.3058H192.615V42.1194H184.917V36.6649H192.615V21.564H200V65.3058Z" fill="#FF854C"/>
</g>
</g>
</svg>
