<svg width="32" height="32" viewBox="0 0 32 32" fill="none" xmlns="http://www.w3.org/2000/svg">
<g id="luggage-03">
<path id="Icon" d="M10.666 28V9.33333C10.666 8.09337 10.666 7.47339 10.8023 6.96472C11.1722 5.58436 12.2504 4.50617 13.6307 4.1363C14.1394 4 14.7594 4 15.9993 4C17.2393 4 17.8593 4 18.368 4.1363C19.7483 4.50617 20.8265 5.58436 21.1964 6.96472C21.3327 7.47339 21.3327 8.09337 21.3327 9.33333V18M21.3327 23.3333V28M9.06602 28H22.9327C25.1729 28 26.293 28 27.1486 27.564C27.9013 27.1805 28.5132 26.5686 28.8967 25.816C29.3327 24.9603 29.3327 23.8402 29.3327 21.6V15.7333C29.3327 13.4931 29.3327 12.373 28.8967 11.5174C28.5132 10.7647 27.9013 10.1528 27.1486 9.76931C26.293 9.33333 25.1729 9.33333 22.9327 9.33333H9.06602C6.82581 9.33333 5.7057 9.33333 4.85005 9.76931C4.09741 10.1528 3.48548 10.7647 3.10199 11.5174C2.66602 12.373 2.66602 13.4931 2.66602 15.7333V21.6C2.66602 23.8402 2.66602 24.9603 3.10199 25.816C3.48548 26.5686 4.09741 27.1805 4.85005 27.564C5.7057 28 6.82581 28 9.06602 28ZM17.066 23.3333H23.5993C23.9727 23.3333 24.1594 23.3333 24.302 23.2607C24.4275 23.1968 24.5294 23.0948 24.5934 22.9693C24.666 22.8267 24.666 22.64 24.666 22.2667V19.0667C24.666 18.6933 24.666 18.5066 24.5934 18.364C24.5294 18.2386 24.4275 18.1366 24.302 18.0727C24.1594 18 23.9727 18 23.5993 18H17.066C16.6926 18 16.506 18 16.3634 18.0727C16.2379 18.1366 16.1359 18.2386 16.072 18.364C15.9993 18.5066 15.9993 18.6933 15.9993 19.0667V22.2667C15.9993 22.64 15.9993 22.8267 16.072 22.9693C16.1359 23.0948 16.2379 23.1968 16.3634 23.2607C16.506 23.3333 16.6926 23.3333 17.066 23.3333Z" stroke="white" stroke-width="2" stroke-linecap="round" stroke-linejoin="round"/>
</g>
</svg>
