<svg width="24" height="24" viewBox="0 0 24 24" fill="none" xmlns="http://www.w3.org/2000/svg">
<g id="cutlery 2">
<g id="cutlery 2_2">
<g id="Group">
<path id="Vector" d="M6.975 22.4999C6.5175 22.4999 6.07873 22.3182 5.75523 21.9947C5.43173 21.6712 5.25 21.2324 5.25 20.7749L6 11.3999H8.025L8.775 20.7749C8.77522 21.0079 8.72824 21.2385 8.6369 21.4528C8.54556 21.6672 8.41174 21.8608 8.24353 22.022C8.07532 22.1832 7.8762 22.3086 7.65818 22.3908C7.44016 22.4729 7.20776 22.51 6.975 22.4999Z" stroke="#707E86" stroke-width="1.2" stroke-linecap="round" stroke-linejoin="round"/>
<path id="Vector_2" d="M6.975 11.4C9.17033 11.4 10.95 9.18381 10.95 6.45C10.95 3.7162 9.17033 1.5 6.975 1.5C4.77967 1.5 3 3.7162 3 6.45C3 9.18381 4.77967 11.4 6.975 11.4Z" stroke="#707E86" stroke-width="1.2" stroke-linecap="round" stroke-linejoin="round"/>
</g>
<g id="Group_2">
<path id="Vector_3" d="M17.4003 22.5C16.9428 22.5 16.504 22.3183 16.1805 21.9948C15.857 21.6713 15.6753 21.2325 15.6753 20.775L16.4253 11.4H18.4503L19.2003 20.775C19.2005 21.008 19.1535 21.2386 19.0622 21.4529C18.9709 21.6673 18.837 21.8609 18.6688 22.0221C18.5006 22.1833 18.3015 22.3087 18.0835 22.3909C17.8655 22.473 17.633 22.5101 17.4003 22.5Z" stroke="#707E86" stroke-width="1.2" stroke-linecap="round" stroke-linejoin="round"/>
<path id="Vector_4" d="M20.7752 8.02502C20.7556 8.92696 20.3835 9.78533 19.7386 10.4162C19.0937 11.0471 18.2273 11.4002 17.3252 11.4C16.4301 11.4 15.5716 11.0444 14.9387 10.4115C14.3058 9.77857 13.9502 8.92013 13.9502 8.02502H20.7752Z" stroke="#707E86" stroke-width="1.2" stroke-linecap="round" stroke-linejoin="round"/>
<path id="Vector_5" d="M13.9502 1.80005V8.02506" stroke="#707E86" stroke-width="1.2" stroke-linecap="round" stroke-linejoin="round"/>
<path id="Vector_6" d="M17.3252 1.80005V7.87505" stroke="#707E86" stroke-width="1.2" stroke-linecap="round" stroke-linejoin="round"/>
<path id="Vector_7" d="M20.7754 1.80005V8.02506" stroke="#707E86" stroke-width="1.2" stroke-linecap="round" stroke-linejoin="round"/>
</g>
</g>
</g>
</svg>
