<svg width="25" height="24" viewBox="0 0 25 24" fill="none" xmlns="http://www.w3.org/2000/svg">
<g id="luggage-03">
<path id="Icon" d="M8.25 21V7C8.25 6.07003 8.25 5.60504 8.35222 5.22354C8.62962 4.18827 9.43827 3.37962 10.4735 3.10222C10.855 3 11.32 3 12.25 3C13.18 3 13.645 3 14.0265 3.10222C15.0617 3.37962 15.8704 4.18827 16.1478 5.22354C16.25 5.60504 16.25 6.07003 16.25 7V13.5M16.25 17.5V21M7.05 21H17.45C19.1302 21 19.9702 21 20.612 20.673C21.1765 20.3854 21.6354 19.9265 21.923 19.362C22.25 18.7202 22.25 17.8802 22.25 16.2V11.8C22.25 10.1198 22.25 9.27976 21.923 8.63803C21.6354 8.07354 21.1765 7.6146 20.612 7.32698C19.9702 7 19.1302 7 17.45 7H7.05C5.36984 7 4.52976 7 3.88803 7.32698C3.32354 7.6146 2.8646 8.07354 2.57698 8.63803C2.25 9.27976 2.25 10.1198 2.25 11.8V16.2C2.25 17.8802 2.25 18.7202 2.57698 19.362C2.8646 19.9265 3.32354 20.3854 3.88803 20.673C4.52976 21 5.36984 21 7.05 21ZM13.05 17.5H17.95C18.23 17.5 18.37 17.5 18.477 17.4455C18.5711 17.3976 18.6476 17.3211 18.6955 17.227C18.75 17.12 18.75 16.98 18.75 16.7V14.3C18.75 14.02 18.75 13.88 18.6955 13.773C18.6476 13.6789 18.5711 13.6024 18.477 13.5545C18.37 13.5 18.23 13.5 17.95 13.5H13.05C12.77 13.5 12.63 13.5 12.523 13.5545C12.4289 13.6024 12.3524 13.6789 12.3045 13.773C12.25 13.88 12.25 14.02 12.25 14.3V16.7C12.25 16.98 12.25 17.12 12.3045 17.227C12.3524 17.3211 12.4289 17.3976 12.523 17.4455C12.63 17.5 12.77 17.5 13.05 17.5Z" stroke="#707E86" stroke-width="1.2" stroke-linecap="round" stroke-linejoin="round"/>
</g>
</svg>
